<svg width="25" height="25" viewBox="0 0 25 25" fill="none" xmlns="http://www.w3.org/2000/svg">
<path d="M5.93276 14.528C5.92026 14.5405 5.9074 14.5533 5.89423 14.5664C5.74206 14.7176 5.54944 14.9091 5.41256 15.1509C5.27567 15.3926 5.21061 15.6563 5.1592 15.8646C5.15453 15.8835 5.14998 15.902 5.1455 15.9199L4.4403 18.7407C4.4375 18.7519 4.43457 18.7635 4.43155 18.7755C4.39473 18.922 4.34373 19.1249 4.32616 19.3045C4.30594 19.5112 4.29926 19.9632 4.66804 20.332C5.03682 20.7007 5.48877 20.6941 5.69547 20.6738C5.87508 20.6563 6.078 20.6053 6.22448 20.5684C6.23649 20.5654 6.24811 20.5625 6.25932 20.5597L9.0801 19.8545C9.09804 19.85 9.11649 19.8455 9.13541 19.8408C9.34371 19.7894 9.60738 19.7243 9.84914 19.5874L5.93276 14.528ZM5.93276 14.528C5.93338 14.5274 5.93399 14.5268 5.9346 14.5262L13.5037 6.95711C13.5165 6.94427 13.5293 6.93144 13.5421 6.91863C13.8419 6.61871 14.1333 6.32723 14.406 6.11919C14.7134 5.88466 15.1113 5.66421 15.625 5.66421C16.1387 5.66421 16.5366 5.88466 16.844 6.11919C17.1167 6.32723 17.408 6.6187 17.7078 6.91861C17.7206 6.93143 17.7335 6.94426 17.7463 6.95711L17.0392 7.66421L17.7463 6.95711L18.0429 7.25368C18.0557 7.26651 18.0686 7.27934 18.0814 7.29214C18.3813 7.59195 18.6728 7.88331 18.8808 8.15598C19.1153 8.46338 19.3358 8.86134 19.3358 9.375C19.3358 9.88866 19.1153 10.2866 18.8808 10.594C18.6728 10.8667 18.3813 11.1581 18.0814 11.4579C18.0685 11.4707 18.0557 11.4835 18.0429 11.4963L10.4738 19.0654C10.4607 19.0785 10.4473 19.0919 10.4336 19.1058C10.2824 19.2579 10.0909 19.4505 9.84915 19.5874L5.93276 14.528Z" stroke="white" stroke-width="2"/>
<path d="M13.0208 7.8125L16.1458 5.72917L19.2708 8.85417L17.1875 11.9792L13.0208 7.8125Z" fill="white"/>
</svg>
