<svg width="25" height="25" viewBox="0 0 25 25" fill="none" xmlns="http://www.w3.org/2000/svg">
<path d="M10.4167 15.625L10.4167 12.5" stroke="white" stroke-width="2" stroke-linecap="round"/>
<path d="M14.5833 15.625L14.5833 12.5" stroke="white" stroke-width="2" stroke-linecap="round"/>
<path d="M3.125 7.29167H21.875V7.29167C20.8256 7.29167 20.3009 7.29167 19.8949 7.48369C19.4766 7.68152 19.1399 8.01827 18.942 8.43656C18.75 8.84255 18.75 9.36726 18.75 10.4167V16.8333C18.75 18.7189 18.75 19.6618 18.1642 20.2475C17.5784 20.8333 16.6356 20.8333 14.75 20.8333H10.25C8.36438 20.8333 7.42157 20.8333 6.83579 20.2475C6.25 19.6618 6.25 18.719 6.25 16.8333V10.4167C6.25 9.36726 6.25 8.84255 6.05798 8.43656C5.86014 8.01827 5.5234 7.68152 5.10511 7.48369C4.69911 7.29167 4.17441 7.29167 3.125 7.29167V7.29167Z" stroke="white" stroke-width="2" stroke-linecap="round"/>
<path d="M10.4877 3.51103C10.6064 3.40029 10.8679 3.30243 11.2318 3.23263C11.5956 3.16283 12.0414 3.125 12.5 3.125C12.9586 3.125 13.4044 3.16283 13.7683 3.23263C14.1321 3.30242 14.3937 3.40029 14.5124 3.51103" stroke="white" stroke-width="2" stroke-linecap="round"/>
</svg>
